<svg width="46" height="29" viewBox="0 0 46 29" fill="none" xmlns="http://www.w3.org/2000/svg">
<path d="M31.333 12.3958C34.7913 12.3958 37.5622 9.66762 37.5622 6.28789C37.5622 2.90815 34.7913 0.179932 31.333 0.179932C27.8747 0.179932 25.083 2.90815 25.083 6.28789C25.083 9.66762 27.8747 12.3958 31.333 12.3958ZM14.6663 12.3958C18.1247 12.3958 20.8955 9.66762 20.8955 6.28789C20.8955 2.90815 18.1247 0.179932 14.6663 0.179932C11.208 0.179932 8.41634 2.90815 8.41634 6.28789C8.41634 9.66762 11.208 12.3958 14.6663 12.3958ZM14.6663 16.4678C9.81217 16.4678 0.0830078 18.8499 0.0830078 23.5938V28.6837H29.2497V23.5938C29.2497 18.8499 19.5205 16.4678 14.6663 16.4678ZM31.333 16.4678C30.7288 16.4678 30.0413 16.5085 29.3122 16.5696C31.7288 18.2798 33.4163 20.5805 33.4163 23.5938V28.6837H45.9163V23.5938C45.9163 18.8499 36.1872 16.4678 31.333 16.4678Z" fill="black"/>
</svg>
