<svg width="46" height="29" viewBox="0 0 46 29" fill="none" xmlns="http://www.w3.org/2000/svg">
<path d="M31.333 12.3956C34.7913 12.3956 37.5622 9.66738 37.5622 6.28764C37.5622 2.90791 34.7913 0.179688 31.333 0.179688C27.8747 0.179688 25.083 2.90791 25.083 6.28764C25.083 9.66738 27.8747 12.3956 31.333 12.3956ZM14.6663 12.3956C18.1247 12.3956 20.8955 9.66738 20.8955 6.28764C20.8955 2.90791 18.1247 0.179688 14.6663 0.179688C11.208 0.179688 8.41634 2.90791 8.41634 6.28764C8.41634 9.66738 11.208 12.3956 14.6663 12.3956ZM14.6663 16.4676C9.81217 16.4676 0.0830078 18.8497 0.0830078 23.5935V28.6835H29.2497V23.5935C29.2497 18.8497 19.5205 16.4676 14.6663 16.4676ZM31.333 16.4676C30.7288 16.4676 30.0413 16.5083 29.3122 16.5694C31.7288 18.2796 33.4163 20.5803 33.4163 23.5935V28.6835H45.9163V23.5935C45.9163 18.8497 36.1872 16.4676 31.333 16.4676Z" fill="url(#paint0_linear_1201_7)"/>
<defs>
<linearGradient id="paint0_linear_1201_7" x1="22.9997" y1="0.179687" x2="22.9997" y2="28.6835" gradientUnits="userSpaceOnUse">
<stop stop-color="#1E0839"/>
<stop offset="1" stop-color="#A45BFE"/>
</linearGradient>
</defs>
</svg>
