<svg width="46" height="42" viewBox="0 0 46 42" fill="none" xmlns="http://www.w3.org/2000/svg">
<path d="M18.625 0.0625C18.625 3.48625 15.8612 6.25 12.4375 6.25C11.3031 6.25 10.375 7.17812 10.375 8.3125H6.25C6.25 4.88875 9.01375 2.125 12.4375 2.125C13.5719 2.125 14.5 1.19687 14.5 0.0625H18.625ZM22.75 4.1875L10.375 13.6337V10.375H6.25V16.7894L0.0625 21.5125L2.55813 24.7919L6.25 21.9662V41.3125H39.25V21.9662L42.9419 24.7712L45.4375 21.5125L22.75 4.1875ZM26.7512 12.4375H18.7281L22.75 9.385L26.7512 12.4375ZM13.345 16.5625H32.155L35.125 18.8313V20.6875H10.375V18.8313L13.345 16.5625ZM35.125 24.8125V28.9375H10.375V24.8125H35.125ZM10.375 37.1875V33.0625H35.125V37.1875H10.375Z" fill="url(#paint0_linear_1_93)"/>
<defs>
<linearGradient id="paint0_linear_1_93" x1="22.75" y1="0.0625" x2="22.75" y2="41.3125" gradientUnits="userSpaceOnUse">
<stop stop-color="#1E0839"/>
<stop offset="1" stop-color="#A45BFE"/>
</linearGradient>
</defs>
</svg>
