<svg width="43" height="48" viewBox="0 0 43 48" fill="none" xmlns="http://www.w3.org/2000/svg">
<path d="M21.5 22.4689C16.0917 17.4272 8.85 14.3335 0.875 14.3335V39.5418C8.85 39.5418 16.0917 42.6356 21.5 47.6772C26.9083 42.6585 34.15 39.5418 42.125 39.5418V14.3335C34.15 14.3335 26.9083 17.4272 21.5 22.4689ZM21.5 14.3335C25.3042 14.3335 28.375 11.2627 28.375 7.4585C28.375 3.65433 25.3042 0.583496 21.5 0.583496C17.6958 0.583496 14.625 3.65433 14.625 7.4585C14.625 11.2627 17.6958 14.3335 21.5 14.3335Z" fill="url(#paint0_linear_1201_6)"/>
<defs>
<linearGradient id="paint0_linear_1201_6" x1="21.5" y1="0.583496" x2="21.5" y2="47.6772" gradientUnits="userSpaceOnUse">
<stop stop-color="#1E0839"/>
<stop offset="1" stop-color="#A45BFE"/>
</linearGradient>
</defs>
</svg>
