<svg width="49" height="26" viewBox="0 0 49 26" fill="none" xmlns="http://www.w3.org/2000/svg">
<path d="M8.3949 0.748166C9.12887 0.497275 10.4037 0.188485 11.1956 0.111288C11.9875 0.0147911 13.2043 -0.0238075 13.8997 0.0147912C14.595 0.0726892 15.6767 0.227084 16.3141 0.381479C16.9515 0.535874 18.091 0.94116 18.825 1.30785C19.559 1.67454 20.6406 2.38861 21.2201 2.90969C21.7995 3.41148 22.5142 4.20275 22.8039 4.66593C23.1129 5.10982 23.3447 5.51511 23.3254 5.5344C23.2868 5.573 22.1472 6.48007 18.2456 9.49077L17.6082 8.6416C17.2798 8.17842 16.5845 7.52224 16.0823 7.21345C15.5608 6.88536 14.8075 6.53797 14.3826 6.42217C13.9576 6.30638 13.0498 6.24848 12.3545 6.28708C11.6591 6.32568 10.79 6.49937 10.423 6.69237C10.056 6.86606 9.4186 7.30994 9.0323 7.69593C8.62668 8.06262 8.08586 8.81529 7.81545 9.33638C7.54504 9.87676 7.25532 10.8803 7.13943 11.6137C7.02354 12.4243 7.02354 13.3699 7.13943 14.1612C7.236 14.856 7.54504 15.8596 7.79614 16.3806C8.04723 16.921 8.68463 17.7123 9.20613 18.1755C9.82421 18.7352 10.5002 19.1211 11.1956 19.3141C11.8716 19.5071 12.6828 19.5843 13.4168 19.5264C14.0735 19.4685 15.0393 19.2176 15.638 18.9475C16.2175 18.6773 17.048 18.1369 18.2456 17.0754L13.8997 17.0561V12.0383H24.3298V25.5478H18.5353V24.5829C18.5353 24.0618 18.4967 23.6179 18.4387 23.6179C18.3808 23.6179 17.9752 23.8881 17.5117 24.1968L17.5116 24.1969C17.0673 24.525 16.1789 24.9688 15.5415 25.1811C14.8654 25.432 13.6872 25.625 12.7408 25.6829C11.6463 25.7473 10.6161 25.6765 9.65038 25.4706C8.85846 25.2969 7.58367 24.8724 6.8497 24.5057C6.11573 24.1583 5.03409 23.5021 4.47395 23.0775C3.93313 22.6336 3.06396 21.7266 2.58108 21.0704C2.07889 20.3949 1.4415 19.3334 1.15177 18.6966C0.862045 18.0597 0.45643 16.8438 0.282595 15.9947C0.0121848 14.8174 -0.0457603 13.9103 0.0314998 12.1348C0.10876 10.3399 0.22465 9.54867 0.591635 8.5644C0.84273 7.86963 1.36424 6.78886 1.73122 6.15198C2.09821 5.5344 2.9867 4.43434 3.68204 3.73957C4.37738 3.04479 5.42039 2.19562 5.99984 1.86753C6.57929 1.52014 7.66093 1.01836 8.3949 0.748166Z" fill="black"/>
<path d="M32.1524 1.57804C32.9057 1.17275 34.1611 0.690268 34.953 0.477975C35.9381 0.227084 37.0584 0.0919885 38.4298 0.0726892C39.8784 0.0726892 40.9021 0.188485 42.003 0.458676C42.8529 0.690268 44.1084 1.15345 44.8037 1.52014C45.4991 1.88683 46.4841 2.6009 47.0056 3.10269C47.5271 3.62377 48.1645 4.35714 48.4542 4.76243C48.7826 5.22562 48.8792 5.5537 48.7633 5.6502C48.6474 5.7467 47.4692 6.61517 43.6448 9.33638L43.3744 8.81529C43.2392 8.5065 42.737 7.94682 42.2734 7.54154C41.7519 7.09765 40.9986 6.69237 40.3613 6.49937C39.653 6.29351 38.8482 6.22275 37.9469 6.28708C37.1163 6.34498 36.3051 6.53797 35.8222 6.78886C35.3973 7.00115 34.7792 7.46434 34.4315 7.83103C34.0839 8.17842 33.5817 8.98899 33.292 9.62587C32.8863 10.475 32.7318 11.1891 32.6739 12.3278C32.5966 13.5436 32.6739 14.1612 33.0022 15.2227C33.2147 15.9754 33.6976 16.9596 34.0452 17.4421C34.4315 17.9439 35.1269 18.5615 35.745 18.8896C36.6914 19.4106 36.9618 19.4685 38.5263 19.4685C40.1102 19.4685 40.3613 19.4106 41.327 18.8703C42.0223 18.4843 42.6018 17.9632 43.5482 16.535L46.2523 18.1369C47.7396 19.0246 48.9757 19.8352 48.9951 19.951C49.0337 20.0475 48.8405 20.5107 48.5895 20.9739C48.3384 21.4178 47.7203 22.1511 47.1988 22.6143C46.6773 23.0775 45.5956 23.7916 44.8037 24.1969C44.0118 24.6022 42.5632 25.1425 41.6167 25.3548C40.2067 25.7022 39.4728 25.7601 37.7537 25.7022C36.1699 25.625 35.2814 25.4899 34.277 25.1425C33.5237 24.8724 32.3262 24.2741 31.5729 23.7723C30.8196 23.2898 29.738 22.3634 29.1585 21.7266C28.5791 21.0897 27.7679 20.0282 27.3622 19.3527C26.9566 18.6773 26.4158 17.4228 26.1261 16.5736C25.7012 15.2613 25.6046 14.6823 25.6046 12.7138C25.5853 10.7838 25.6625 10.1662 26.0295 9.04689C26.2806 8.31351 26.8021 7.13625 27.1691 6.44147C27.5747 5.7274 28.4825 4.56944 29.3324 3.73957C30.2788 2.7939 31.2832 2.02192 32.1524 1.57804Z" fill="black"/>
</svg>
