<svg width="46" height="42" viewBox="0 0 46 42" fill="none" xmlns="http://www.w3.org/2000/svg">
<path d="M18.6251 0.0625C18.6251 3.48625 15.8613 6.25 12.4376 6.25C11.3032 6.25 10.3751 7.17812 10.3751 8.3125H6.25006C6.25006 4.88875 9.01381 2.125 12.4376 2.125C13.5719 2.125 14.5001 1.19687 14.5001 0.0625H18.6251ZM22.7501 4.1875L10.3751 13.6337V10.375H6.25006V16.7894L0.062561 21.5125L2.55819 24.7919L6.25006 21.9662V41.3125H39.2501V21.9662L42.9419 24.7712L45.4376 21.5125L22.7501 4.1875ZM26.7513 12.4375H18.7282L22.7501 9.385L26.7513 12.4375ZM13.3451 16.5625H32.1551L35.1251 18.8313V20.6875H10.3751V18.8313L13.3451 16.5625ZM35.1251 24.8125V28.9375H10.3751V24.8125H35.1251ZM10.3751 37.1875V33.0625H35.1251V37.1875H10.3751Z" fill="black"/>
</svg>
